<svg height="512pt" viewBox="0 -53 512 512" width="512pt" fill="#fff" xmlns="http://www.w3.org/2000/svg"><path d="m432 337c0 11.046875-8.953125 20-20 20s-20-8.953125-20-20 8.953125-20 20-20 20 8.953125 20 20zm-330-255.902344c-11.046875 0-20 8.957032-20 20 0 11.046875 8.953125 20 20 20s20-8.953125 20-20c0-11.042968-8.953125-20-20-20zm98 21.304688c0 27.175781-14.910156 59.804687-44.3125 96.984375-20.730469 26.207031-41.25 45.257812-42.113281 46.054687l-13.574219 12.550782-13.574219-12.550782c-.863281-.796875-21.382812-19.847656-42.113281-46.054687-29.402344-37.179688-44.3125-69.808594-44.3125-96.984375v-2.449219c0-55.113281 44.859375-99.953125 100-99.953125s100 44.839844 100 99.953125zm-40-2.445313c0-33.058593-26.914062-59.957031-60-59.957031s-60 26.898438-60 59.957031v2.449219c0 17.351562 12.558594 42.835938 35.363281 71.757812 8.785157 11.140626 17.65625 20.976563 24.636719 28.3125 6.980469-7.335937 15.851562-17.171874 24.636719-28.3125 22.804687-28.925781 35.363281-54.40625 35.363281-71.761718zm254-18.859375c-11.046875 0-20 8.957032-20 20 0 11.046875 8.953125 20 20 20s20-8.953125 20-20c0-11.042968-8.953125-20-20-20zm98 18.859375v2.449219c0 27.171875-14.910156 59.800781-44.3125 96.980469-20.730469 26.207031-41.25 45.257812-42.113281 46.054687l-13.574219 12.550782-13.574219-12.550782c-.863281-.796875-21.382812-19.847656-42.113281-46.054687-29.402344-37.179688-44.3125-69.808594-44.3125-96.984375v-2.449219c0-55.113281 44.859375-99.953125 100-99.953125s100 44.839844 100 99.957031zm-40 0c0-33.058593-26.914062-59.957031-60-59.957031s-60 26.898438-60 59.957031v2.449219c0 17.351562 12.558594 42.835938 35.363281 71.757812 8.785157 11.140626 17.65625 20.976563 24.636719 28.3125 6.980469-7.335937 15.851562-17.171874 24.636719-28.3125 22.804687-28.925781 35.363281-54.40625 35.363281-71.761718zm-371 214.042969c-11.046875 0-20 8.953125-20 20s8.953125 20 20 20 20-8.953125 20-20-8.953125-20-20-20zm163.859375-18.855469 20.855469 20.855469h-124.714844v40h124.714844l-20.855469 20.859375 28.28125 28.285156 69.144531-69.144531-69.144531-69.140625zm0 0"/></svg>
